<svg width="48" height="40" viewBox="0 0 48 40" fill="none" xmlns="http://www.w3.org/2000/svg">
<g clip-path="url(#clip0_0_542)">
<path fill-rule="evenodd" clip-rule="evenodd" d="M45.9167 38.6668C45.9167 38.6668 49 38.6668 49 35.5557C49 32.4446 45.9167 23.1113 33.5833 23.1113C21.25 23.1113 18.1667 32.4446 18.1667 35.5557C18.1667 38.6668 21.25 38.6668 21.25 38.6668H45.9167ZM21.3178 35.5557H45.8488C45.8633 35.554 45.8777 35.5519 45.892 35.5495L45.9167 35.5433C45.9105 34.7219 45.4017 32.3388 43.5733 30.1922C41.8713 28.1793 38.8805 26.2224 33.5833 26.2224C28.2892 26.2224 25.2984 28.1824 23.5933 30.1922C21.7649 32.3388 21.2531 34.7251 21.25 35.5433C21.2726 35.5477 21.2952 35.5518 21.3178 35.5557ZM33.5833 16.8891C35.2188 16.8891 36.7873 16.2335 37.9438 15.0666C39.1003 13.8997 39.75 12.3171 39.75 10.6668C39.75 9.01659 39.1003 7.43395 37.9438 6.26705C36.7873 5.10016 35.2188 4.44461 33.5833 4.44461C31.9478 4.44461 30.3793 5.10016 29.2228 6.26705C28.0664 7.43395 27.4167 9.01659 27.4167 10.6668C27.4167 12.3171 28.0664 13.8997 29.2228 15.0666C30.3793 16.2335 31.9478 16.8891 33.5833 16.8891ZM42.8333 10.6668C42.8333 11.8925 42.5941 13.1062 42.1292 14.2385C41.6644 15.3709 40.983 16.3998 40.1241 17.2665C39.2651 18.1332 38.2454 18.8207 37.1231 19.2897C36.0009 19.7587 34.798 20.0002 33.5833 20.0002C32.3686 20.0002 31.1658 19.7587 30.0435 19.2897C28.9212 18.8207 27.9015 18.1332 27.0426 17.2665C26.1836 16.3998 25.5023 15.3709 25.0374 14.2385C24.5726 13.1062 24.3333 11.8925 24.3333 10.6668C24.3333 8.19147 25.3079 5.81751 27.0426 4.06717C28.7773 2.31683 31.1301 1.3335 33.5833 1.3335C36.0366 1.3335 38.3894 2.31683 40.1241 4.06717C41.8588 5.81751 42.8333 8.19147 42.8333 10.6668ZM21.0527 23.9824C19.8193 23.5905 18.5479 23.3329 17.2602 23.2139C16.5366 23.1445 15.8101 23.1103 15.0833 23.1113C2.74999 23.1113 -0.333344 32.4446 -0.333344 35.5557C-0.333344 37.6308 0.693406 38.6668 2.74999 38.6668H15.7493C15.2922 37.6956 15.0643 36.6307 15.0833 35.5557C15.0833 32.4135 16.2457 29.2028 18.4442 26.521C19.1934 25.6064 20.066 24.7508 21.0527 23.9824ZM14.8367 26.2224C9.69366 26.2846 6.77374 28.2135 5.09332 30.1922C3.25257 32.3513 2.74999 34.7437 2.74999 35.5557H12C12 32.3046 12.9959 29.0659 14.8367 26.2224ZM4.29166 12.2224C4.29166 9.74703 5.26621 7.37306 7.00092 5.62272C8.73563 3.87238 11.0884 2.88905 13.5417 2.88905C15.9949 2.88905 18.3477 3.87238 20.0824 5.62272C21.8171 7.37306 22.7917 9.74703 22.7917 12.2224C22.7917 14.6977 21.8171 17.0717 20.0824 18.822C18.3477 20.5724 15.9949 21.5557 13.5417 21.5557C11.0884 21.5557 8.73563 20.5724 7.00092 18.822C5.26621 17.0717 4.29166 14.6977 4.29166 12.2224ZM13.5417 6.00016C11.9062 6.00016 10.3376 6.65572 9.18116 7.82261C8.02469 8.9895 7.37499 10.5721 7.37499 12.2224C7.37499 13.8726 8.02469 15.4553 9.18116 16.6222C10.3376 17.7891 11.9062 18.4446 13.5417 18.4446C15.1772 18.4446 16.7457 17.7891 17.9021 16.6222C19.0586 15.4553 19.7083 13.8726 19.7083 12.2224C19.7083 10.5721 19.0586 8.9895 17.9021 7.82261C16.7457 6.65572 15.1772 6.00016 13.5417 6.00016Z" fill="white"/>
</g>
<defs>
<clipPath id="clip0_0_542">
<rect width="48" height="39.5295" fill="white"/>
</clipPath>
</defs>
</svg>
