<svg width="132" height="23" viewBox="0 0 132 23" fill="none" xmlns="http://www.w3.org/2000/svg">
<g clip-path="url(#clip0_0_584)">
<path d="M21.0967 8.41939C21.0391 8.24958 20.9329 8.10037 20.7914 7.99018C20.65 7.87999 20.4793 7.81365 20.3005 7.79934L15.0714 7.38383L12.8086 2.37482C12.7365 2.21349 12.6193 2.07646 12.4711 1.98028C12.3229 1.88409 12.15 1.83286 11.9733 1.83276C11.7966 1.83267 11.6236 1.88371 11.4753 1.97973C11.327 2.07575 11.2096 2.21265 11.1374 2.3739L8.87456 7.38383L3.64541 7.79934C3.46972 7.81326 3.30176 7.8775 3.16162 7.98438C3.02148 8.09125 2.9151 8.23624 2.85521 8.40199C2.79531 8.56774 2.78444 8.74724 2.82388 8.91901C2.86333 9.09078 2.95143 9.24755 3.07764 9.37056L6.94195 13.1376L5.57527 19.0556C5.53377 19.2348 5.54707 19.4222 5.61345 19.5937C5.67982 19.7652 5.7962 19.9128 5.94749 20.0173C6.09877 20.1218 6.27798 20.1785 6.46185 20.1799C6.64573 20.1813 6.82578 20.1274 6.97864 20.0252L11.973 16.6956L16.9673 20.0252C17.1236 20.1289 17.3078 20.1823 17.4953 20.1782C17.6828 20.1741 17.8645 20.1126 18.0161 20.0022C18.1676 19.8917 18.2817 19.7374 18.343 19.5602C18.4042 19.3829 18.4097 19.1912 18.3588 19.0107L16.6811 13.1404L20.8417 9.39625C21.1141 9.15043 21.2141 8.76702 21.0967 8.41939Z" fill="#F3CD03"/>
<path d="M48.1116 8.41939C48.054 8.24958 47.9479 8.10037 47.8064 7.99018C47.6649 7.87999 47.4942 7.81365 47.3155 7.79934L42.0863 7.38383L39.8235 2.37482C39.7515 2.21349 39.6342 2.07646 39.486 1.98028C39.3378 1.88409 39.1649 1.83286 38.9882 1.83276C38.8115 1.83267 38.6386 1.88371 38.4902 1.97973C38.3419 2.07575 38.2246 2.21265 38.1523 2.3739L35.8895 7.38383L30.6603 7.79934C30.4847 7.81326 30.3167 7.8775 30.1766 7.98438C30.0364 8.09125 29.93 8.23624 29.8701 8.40199C29.8102 8.56774 29.7994 8.74724 29.8388 8.91901C29.8783 9.09078 29.9664 9.24755 30.0926 9.37056L33.9569 13.1376L32.5902 19.0556C32.5487 19.2348 32.562 19.4222 32.6284 19.5937C32.6948 19.7652 32.8111 19.9128 32.9624 20.0173C33.1137 20.1218 33.2929 20.1785 33.4768 20.1799C33.6607 20.1813 33.8407 20.1274 33.9936 20.0252L38.9879 16.6956L43.9823 20.0252C44.1385 20.1289 44.3228 20.1823 44.5102 20.1782C44.6977 20.1741 44.8795 20.1126 45.031 20.0022C45.1826 19.8917 45.2966 19.7374 45.3579 19.5602C45.4192 19.3829 45.4247 19.1912 45.3737 19.0107L43.6961 13.1404L47.8567 9.39625C48.1291 9.15043 48.2291 8.76702 48.1116 8.41939Z" fill="#F3CD03"/>
<path d="M75.1227 8.41939C75.065 8.24958 74.9589 8.10037 74.8174 7.99018C74.6759 7.87999 74.5053 7.81365 74.3265 7.79934L69.0973 7.38383L66.8345 2.37482C66.7625 2.21349 66.6452 2.07646 66.497 1.98028C66.3488 1.88409 66.1759 1.83286 65.9992 1.83276C65.8225 1.83267 65.6496 1.88371 65.5013 1.97973C65.3529 2.07575 65.2356 2.21265 65.1633 2.3739L62.9005 7.38383L57.6714 7.79934C57.4957 7.81326 57.3277 7.8775 57.1876 7.98438C57.0474 8.09125 56.941 8.23624 56.8812 8.40199C56.8213 8.56774 56.8104 8.74724 56.8498 8.91901C56.8893 9.09078 56.9774 9.24755 57.1036 9.37056L60.9679 13.1376L59.6012 19.0556C59.5597 19.2348 59.573 19.4222 59.6394 19.5937C59.7058 19.7652 59.8221 19.9128 59.9734 20.0173C60.1247 20.1218 60.3039 20.1785 60.4878 20.1799C60.6717 20.1813 60.8517 20.1274 61.0046 20.0252L65.9989 16.6956L70.9933 20.0252C71.1495 20.1289 71.3338 20.1823 71.5213 20.1782C71.7087 20.1741 71.8905 20.1126 72.042 20.0022C72.1936 19.8917 72.3076 19.7374 72.3689 19.5602C72.4302 19.3829 72.4357 19.1912 72.3847 19.0107L70.7071 13.1404L74.8677 9.39625C75.1401 9.15043 75.2401 8.76702 75.1227 8.41939Z" fill="#F3CD03"/>
<path d="M102.137 8.41939C102.079 8.24958 101.973 8.10037 101.831 7.99018C101.69 7.87999 101.519 7.81365 101.34 7.79934L96.1113 7.38383L93.8485 2.37482C93.7764 2.21349 93.6592 2.07646 93.511 1.98028C93.3628 1.88409 93.1899 1.83286 93.0132 1.83276C92.8365 1.83267 92.6636 1.88371 92.5152 1.97973C92.3669 2.07575 92.2495 2.21265 92.1773 2.3739L89.9145 7.38383L84.6853 7.79934C84.5096 7.81326 84.3417 7.8775 84.2015 7.98438C84.0614 8.09125 83.955 8.23624 83.8951 8.40199C83.8352 8.56774 83.8244 8.74724 83.8638 8.91901C83.9033 9.09078 83.9914 9.24755 84.1176 9.37056L87.9819 13.1376L86.6152 19.0556C86.5737 19.2348 86.587 19.4222 86.6534 19.5937C86.7197 19.7652 86.8361 19.9128 86.9874 20.0173C87.1387 20.1218 87.3179 20.1785 87.5018 20.1799C87.6857 20.1813 87.8657 20.1274 88.0186 20.0252L93.0129 16.6956L98.0072 20.0252C98.1635 20.1289 98.3477 20.1823 98.5352 20.1782C98.7227 20.1741 98.9045 20.1126 99.056 20.0022C99.2075 19.8917 99.3216 19.7374 99.3829 19.5602C99.4441 19.3829 99.4497 19.1912 99.3987 19.0107L97.7211 13.1404L101.882 9.39625C102.154 9.15043 102.254 8.76702 102.137 8.41939Z" fill="#F3CD03"/>
<path d="M114.998 13.1377L113.631 19.0557C113.589 19.2349 113.601 19.4227 113.667 19.5945C113.734 19.7664 113.85 19.9143 114.001 20.0191C114.153 20.1238 114.332 20.1804 114.516 20.1814C114.701 20.1825 114.881 20.1281 115.033 20.0252L120.028 16.6956L125.022 20.0252C125.178 20.1289 125.363 20.1823 125.55 20.1782C125.738 20.1741 125.919 20.1127 126.071 20.0022C126.222 19.8917 126.337 19.7375 126.398 19.5602C126.459 19.383 126.465 19.1912 126.414 19.0107L124.736 13.1404L128.897 9.39628C129.03 9.27629 129.125 9.11988 129.17 8.94638C129.216 8.77289 129.209 8.58992 129.151 8.4201C129.094 8.25029 128.988 8.10107 128.846 7.99091C128.705 7.88075 128.534 7.81448 128.355 7.80029L123.126 7.38386L120.863 2.37485C120.791 2.21356 120.674 2.0766 120.526 1.98049C120.377 1.88439 120.205 1.83325 120.028 1.83325C119.851 1.83325 119.678 1.88439 119.53 1.98049C119.382 2.0766 119.264 2.21356 119.192 2.37485L116.929 7.38386L111.7 7.79937C111.525 7.81329 111.357 7.87753 111.216 7.98441C111.076 8.09128 110.97 8.23627 110.91 8.40202C110.85 8.56777 110.839 8.74727 110.879 8.91904C110.918 9.09081 111.006 9.24758 111.132 9.37059L114.998 13.1377ZM117.615 9.16972C117.778 9.15682 117.936 9.10012 118.07 9.00555C118.204 8.91098 118.31 8.78203 118.378 8.63222L120.028 4.98071L121.678 8.63222C121.745 8.78203 121.852 8.91098 121.986 9.00555C122.12 9.10012 122.277 9.15682 122.441 9.16972L126.084 9.45865L123.084 12.159C122.824 12.3938 122.72 12.7552 122.815 13.0927L123.965 17.1148L120.538 14.83C120.387 14.729 120.21 14.6751 120.029 14.6751C119.848 14.6751 119.671 14.729 119.521 14.83L115.94 17.2175L116.903 13.0478C116.938 12.8944 116.933 12.7346 116.889 12.5836C116.845 12.4326 116.762 12.2955 116.65 12.1856L113.863 9.46874L117.615 9.16972Z" fill="#F3CD03"/>
</g>
<defs>
<clipPath id="clip0_0_584">
<rect width="130.068" height="22.0136" fill="white" transform="translate(0.965942)"/>
</clipPath>
</defs>
</svg>
